<svg width="675" height="711" viewBox="0 0 675 711" fill="none" xmlns="http://www.w3.org/2000/svg">
<path opacity="0.2" d="M636.999 327.409C699.709 284.489 418.269 -171.651 311.999 72.409C295.889 109.409 154.029 201.699 128.849 275.729C148.099 259.029 171.939 241.479 201.439 223.899C337.469 142.809 458.669 155.009 458.669 155.009C481.239 151.649 634.419 112.859 606.999 262.409C585.909 377.399 621.609 469.549 580.999 470.409C573.879 506.599 508.689 731.919 301.999 652.409C262.839 637.339 200.379 625.759 172.069 616.339C315.899 714.189 394.549 680.359 446.999 695.409C681.189 762.599 636.999 327.409 636.999 327.409Z" fill="url(#paint0_linear_522_454)"/>
<path opacity="0.5" d="M551.999 117.409C329.009 119.979 183.169 144.059 124.099 203.989C107.079 221.259 92.8092 241.029 81.6692 262.559C2.10922 416.379 57.9992 510.409 57.9992 510.409C57.9992 510.409 58.4691 511.579 59.5791 513.699C60.2491 514.969 62.1492 514.019 61.5592 512.719C44.2992 474.659 41.1192 441.469 40.9992 440.179C40.9992 440.149 40.9992 440.129 40.9992 440.099C41.0092 439.089 41.2391 419.989 49.7191 385.209C49.7191 385.209 65.4191 304.989 201.439 223.899C335.549 143.949 455.249 154.689 458.599 155.009C458.649 155.019 458.689 155.009 458.739 155.009C487.869 152.959 648.439 103.529 600.999 261.419C569.089 367.629 624.179 465.409 579.999 465.419C579.959 465.419 576.999 470.379 576.999 470.419C573.269 512.019 451.999 730.419 254.999 654.419C252.089 653.299 251.019 638.169 247.999 638.419C246.719 638.529 263.739 643.179 264.999 643.419C275.439 645.389 289.529 641.849 300.999 643.419C388.489 655.429 453.649 636.099 500.669 621.529C554.199 604.939 628.259 573.899 624.929 517.959C616.029 368.279 781.149 114.769 551.999 117.409Z" fill="url(#paint1_linear_522_454)"/>
<path d="M633.999 244.409C666.039 123.799 507.999 122.409 485.719 120.149C482.049 119.779 478.349 120.169 474.669 119.989C445.839 118.579 322.419 118.079 185.999 199.409C84.5592 259.889 56.6892 309.369 49.6092 336.579C44.7492 355.269 49.5892 378.769 34.9992 391.409C29.2392 396.399 11.9992 406.409 7.9992 414.409C-6.9708 444.349 3.12915 461.549 11.9492 493.689H53.8592C51.4092 486.859 49.3992 480.369 47.7792 474.429C41.7792 452.509 35.6692 436.579 55.9992 426.409C83.9992 412.409 87.4992 396.019 86.9992 371.409C86.2692 335.939 92.7291 320.559 117.939 293.079C135.819 273.579 161.609 254.299 199.999 231.409C318.769 160.599 427.689 153.419 453.039 154.639C456.319 154.799 459.589 154.819 462.869 154.779C479.619 154.589 613.569 158.039 582.489 263.139C548.999 376.409 589.049 417.309 570.999 453.409C563.999 467.409 557.509 478.899 555.999 481.409C542.549 503.769 456.999 671.409 276.429 624.999C149.809 592.459 87.7792 570.549 61.5492 512.719L57.3392 502.859L60.3492 510.019C59.2892 507.609 58.2892 505.219 57.3392 502.859C56.2292 500.089 45.9992 471.399 45.9992 467.399L7.9992 473.399C6.9992 477.399 14.7592 503.189 16.2392 507.389C18.1292 512.749 20.2592 518.299 22.6592 523.969C51.1992 591.499 107.949 614.019 244.999 686.399C422.999 780.399 548.079 565.729 563.999 539.399C565.739 536.519 594.999 493.399 608.999 467.399C621.819 443.599 599.999 372.409 633.999 244.409Z" fill="url(#paint2_linear_522_454)"/>
<defs>
<linearGradient id="paint0_linear_522_454" x1="515.488" y1="573.54" x2="150.974" y2="209.026" gradientUnits="userSpaceOnUse">
<stop offset="0.00374596" stop-color="#5349FF"/>
<stop offset="1" stop-color="#0088CC"/>
</linearGradient>
<linearGradient id="paint1_linear_522_454" x1="579.614" y1="576.772" x2="165.46" y2="162.617" gradientUnits="userSpaceOnUse">
<stop offset="0.00374596" stop-color="#5349FF"/>
<stop offset="1" stop-color="#0088CC"/>
</linearGradient>
<linearGradient id="paint2_linear_522_454" x1="566.616" y1="578.663" x2="155.435" y2="167.482" gradientUnits="userSpaceOnUse">
<stop offset="0.00374596" stop-color="#5349FF"/>
<stop offset="1" stop-color="#0088CC"/>
</linearGradient>
</defs>
</svg>
