<svg width="227" height="45" viewBox="0 0 227 45" fill="none" xmlns="http://www.w3.org/2000/svg">
<path fill-rule="evenodd" clip-rule="evenodd" d="M39 0H0L6 6H17V45H23V6H33L39 0Z" fill="url(#paint0_linear_504_354)"/>
<path fill-rule="evenodd" clip-rule="evenodd" d="M6 39V12L0 6V45L6 39Z" fill="#1A6CC7"/>
<path d="M41.52 25.69V7.84H47.82V25.69C47.82 27.706 48.38 29.302 49.5 30.478C50.648 31.626 52.188 32.2 54.12 32.2C56.052 32.2 57.578 31.626 58.698 30.478C59.846 29.302 60.42 27.706 60.42 25.69V7.84H66.72V25.69C66.72 29.47 65.586 32.48 63.318 34.72C61.05 36.96 57.984 38.08 54.12 38.08C50.256 38.08 47.19 36.96 44.922 34.72C42.654 32.48 41.52 29.47 41.52 25.69Z" fill="#1C1C1C"/>
<path d="M71.9585 37.24V7.84H80.1485L91.6985 28.63H92.1185L91.6985 25.06V7.84H97.9985V37.24H89.8085L78.2585 16.45H77.8385L78.2585 20.02V37.24H71.9585Z" fill="#1C1C1C"/>
<path d="M103.459 37.24V7.84H109.759V37.24H103.459Z" fill="#1C1C1C"/>
<path d="M113.55 28H120.06C120.312 28.84 120.718 29.582 121.278 30.226C122.51 31.682 124.344 32.41 126.78 32.41C130.42 32.41 132.24 31.29 132.24 29.05C132.24 28.49 132.044 27.986 131.652 27.538C131.288 27.09 130.7 26.698 129.888 26.362C129.104 26.026 128.334 25.76 127.578 25.564C126.85 25.34 125.898 25.074 124.722 24.766C124.554 24.738 124.414 24.71 124.302 24.682C124.218 24.654 124.092 24.626 123.924 24.598C123.784 24.542 123.658 24.5 123.546 24.472C117.722 23.072 114.81 20.258 114.81 16.03C114.81 13.51 115.832 11.382 117.876 9.646C119.948 7.882 122.706 7 126.15 7C130.63 7 134.018 8.512 136.314 11.536C137.266 12.88 137.938 14.378 138.33 16.03H131.82C131.652 15.442 131.33 14.882 130.854 14.35C129.79 13.23 128.222 12.67 126.15 12.67C124.554 12.67 123.35 12.978 122.538 13.594C121.726 14.182 121.32 14.924 121.32 15.82C121.32 17.444 123.168 18.676 126.864 19.516C127.816 19.74 128.404 19.88 128.628 19.936C128.88 19.992 129.454 20.146 130.35 20.398C131.274 20.65 131.89 20.86 132.198 21.028C132.534 21.168 133.08 21.406 133.836 21.742C134.62 22.05 135.166 22.344 135.474 22.624C135.81 22.904 136.23 23.282 136.734 23.758C137.266 24.206 137.644 24.668 137.868 25.144C138.092 25.62 138.288 26.18 138.456 26.824C138.652 27.44 138.75 28.112 138.75 28.84C138.75 31.444 137.7 33.642 135.6 35.434C133.5 37.198 130.56 38.08 126.78 38.08C121.796 38.08 118.142 36.4 115.818 33.04C114.726 31.584 113.97 29.904 113.55 28Z" fill="#1C1C1C"/>
<path d="M146.317 33.586C143.237 30.562 141.697 26.88 141.697 22.54C141.697 18.2 143.237 14.532 146.317 11.536C149.425 8.512 153.275 7 157.867 7C162.459 7 166.295 8.512 169.375 11.536C172.483 14.532 174.037 18.2 174.037 22.54C174.037 26.88 172.483 30.562 169.375 33.586C166.295 36.582 162.459 38.08 157.867 38.08C153.275 38.08 149.425 36.582 146.317 33.586ZM151.063 15.61C149.299 17.402 148.417 19.712 148.417 22.54C148.417 25.368 149.299 27.692 151.063 29.512C152.855 31.304 155.123 32.2 157.867 32.2C160.611 32.2 162.865 31.304 164.629 29.512C166.421 27.692 167.317 25.368 167.317 22.54C167.317 19.712 166.421 17.402 164.629 15.61C162.865 13.79 160.611 12.88 157.867 12.88C155.123 12.88 152.855 13.79 151.063 15.61Z" fill="#1C1C1C"/>
<path d="M178.23 37.24V7.84H199.65V13.72H184.53V20.86H196.29V26.53H184.53V37.24H178.23Z" fill="#1C1C1C"/>
<path d="M201.104 13.72V7.84H226.304V13.72H216.854V37.24H210.554V13.72H201.104Z" fill="#1C1C1C"/>
<defs>
<linearGradient id="paint0_linear_504_354" x1="19.5" y1="0" x2="19.5" y2="45" gradientUnits="userSpaceOnUse">
<stop stop-color="#26B3E9"/>
<stop offset="1" stop-color="#1289D9"/>
</linearGradient>
</defs>
</svg>
